<mxfile host="app.diagrams.net" modified="2022-04-14T00:32:35.105Z" agent="5.0 (Windows NT 10.0; Win64; x64) AppleWebKit/537.36 (KHTML, like Gecko) Chrome/100.0.4896.88 Safari/537.36" etag="f-EAR6tZOazzS1VX11wQ" version="17.4.0" type="github">
  <diagram id="wVsBdZxiH8nJHd6p7VmP" name="Page-1">
    <mxGraphModel dx="1422" dy="794" grid="1" gridSize="10" guides="1" tooltips="1" connect="1" arrows="1" fold="1" page="1" pageScale="1" pageWidth="850" pageHeight="1100" math="0" shadow="0">
      <root>
        <mxCell id="0" />
        <mxCell id="1" parent="0" />
        <mxCell id="2Tc4zqBaj-50UbLFEAQF-1" value="index.html" style="rounded=0;whiteSpace=wrap;html=1;" parent="1" vertex="1">
          <mxGeometry x="150" y="320" width="120" height="60" as="geometry" />
        </mxCell>
        <mxCell id="2Tc4zqBaj-50UbLFEAQF-2" value="sortVisualizer" style="rounded=0;whiteSpace=wrap;html=1;" parent="1" vertex="1">
          <mxGeometry x="360" y="320" width="120" height="60" as="geometry" />
        </mxCell>
        <mxCell id="2Tc4zqBaj-50UbLFEAQF-3" value="" style="endArrow=none;html=1;rounded=0;exitX=1;exitY=0.5;exitDx=0;exitDy=0;entryX=0;entryY=0.5;entryDx=0;entryDy=0;" parent="1" source="2Tc4zqBaj-50UbLFEAQF-1" target="2Tc4zqBaj-50UbLFEAQF-2" edge="1">
          <mxGeometry width="50" height="50" relative="1" as="geometry">
            <mxPoint x="350" y="560" as="sourcePoint" />
            <mxPoint x="400" y="510" as="targetPoint" />
          </mxGeometry>
        </mxCell>
        <mxCell id="2Tc4zqBaj-50UbLFEAQF-4" value="1" style="text;html=1;strokeColor=none;fillColor=none;align=center;verticalAlign=middle;whiteSpace=wrap;rounded=0;" parent="1" vertex="1">
          <mxGeometry x="260" y="320" width="60" height="30" as="geometry" />
        </mxCell>
        <mxCell id="2Tc4zqBaj-50UbLFEAQF-6" value="1" style="text;html=1;strokeColor=none;fillColor=none;align=center;verticalAlign=middle;whiteSpace=wrap;rounded=0;" parent="1" vertex="1">
          <mxGeometry x="310" y="320" width="60" height="30" as="geometry" />
        </mxCell>
        <mxCell id="vwki9tmzGzAWzVKEi5jq-1" value="sortVisualizer" style="swimlane;childLayout=stackLayout;horizontal=1;startSize=30;horizontalStack=0;rounded=1;fontSize=14;fontStyle=0;strokeWidth=2;resizeParent=0;resizeLast=1;shadow=0;dashed=0;align=center;" parent="1" vertex="1">
          <mxGeometry x="320" y="660" width="160" height="360" as="geometry" />
        </mxCell>
        <mxCell id="vwki9tmzGzAWzVKEi5jq-2" value="+ cube[] : BoxGeometry&#xa;+ clock : Clock&#xa;+ controls : OrbitControls&#xa;+ ambLight : AmbientLight&#xa;+pointLight1 : PointLight&#xa;+pointLight2 : PointLight&#xa;&#xa;+ animate() : void&#xa;+ swap() : Mixer&#xa;&#xa;+ bubbleSort() : async void&#xa;+ insertionSort() : &#xa;    async void&#xa;+ quickSort() : async void&#xa;+ partition() : async int&#xa;&#xa;+ reset() : void&#xa;+ randomize() : void&#xa;&#xa;+ brightCubes : void&#xa;+ resetColors : void&#xa;" style="align=left;strokeColor=none;fillColor=none;spacingLeft=4;fontSize=12;verticalAlign=top;resizable=0;rotatable=0;part=1;fontColor=#000000;" parent="vwki9tmzGzAWzVKEi5jq-1" vertex="1">
          <mxGeometry y="30" width="160" height="330" as="geometry" />
        </mxCell>
        <mxCell id="NdWpOMTuw9Us9Ph3mF8L-4" value="" style="endArrow=none;html=1;rounded=0;fontColor=#000000;entryX=1;entryY=0.32;entryDx=0;entryDy=0;entryPerimeter=0;exitX=0.006;exitY=0.32;exitDx=0;exitDy=0;exitPerimeter=0;" parent="vwki9tmzGzAWzVKEi5jq-1" source="vwki9tmzGzAWzVKEi5jq-2" target="vwki9tmzGzAWzVKEi5jq-2" edge="1">
          <mxGeometry width="50" height="50" relative="1" as="geometry">
            <mxPoint x="-180" y="250" as="sourcePoint" />
            <mxPoint x="-130" y="200" as="targetPoint" />
          </mxGeometry>
        </mxCell>
        <mxCell id="vwki9tmzGzAWzVKEi5jq-4" value="index.html" style="swimlane;childLayout=stackLayout;horizontal=1;startSize=30;horizontalStack=0;rounded=1;fontSize=14;fontStyle=0;strokeWidth=2;resizeParent=0;resizeLast=1;shadow=0;dashed=0;align=center;" parent="1" vertex="1">
          <mxGeometry x="160" y="490" width="170" height="70" as="geometry" />
        </mxCell>
        <mxCell id="vwki9tmzGzAWzVKEi5jq-5" value="+ &lt;script sortVisualizer.js&gt;" style="align=left;strokeColor=none;fillColor=none;spacingLeft=4;fontSize=12;verticalAlign=top;resizable=0;rotatable=0;part=1;" parent="vwki9tmzGzAWzVKEi5jq-4" vertex="1">
          <mxGeometry y="30" width="170" height="40" as="geometry" />
        </mxCell>
        <mxCell id="vwki9tmzGzAWzVKEi5jq-6" value="" style="endArrow=classic;html=1;rounded=0;exitX=0.5;exitY=1;exitDx=0;exitDy=0;entryX=0;entryY=0.25;entryDx=0;entryDy=0;" parent="1" source="vwki9tmzGzAWzVKEi5jq-5" target="vwki9tmzGzAWzVKEi5jq-2" edge="1">
          <mxGeometry width="50" height="50" relative="1" as="geometry">
            <mxPoint x="90" y="710" as="sourcePoint" />
            <mxPoint x="140" y="660" as="targetPoint" />
            <Array as="points">
              <mxPoint x="245" y="775" />
            </Array>
          </mxGeometry>
        </mxCell>
      </root>
    </mxGraphModel>
  </diagram>
</mxfile>
